<svg version="1.1" viewBox="0.0 0.0 960.0 720.0" fill="none" stroke="none" stroke-linecap="square" stroke-miterlimit="10" xmlns:xlink="http://www.w3.org/1999/xlink" xmlns="http://www.w3.org/2000/svg"><clipPath id="p.0"><path d="m0 0l960.0 0l0 720.0l-960.0 0l0 -720.0z" clip-rule="nonzero"/></clipPath><g clip-path="url(#p.0)"><path fill="#000000" fill-opacity="0.0" d="m0 0l960.0 0l0 720.0l-960.0 0z" fill-rule="evenodd"/><path fill="#434343" d="m432.4908 321.2021l502.51968 0l0 334.2047l-502.51968 0z" fill-rule="evenodd"/><path stroke="#000000" stroke-width="8.0" stroke-linejoin="round" stroke-linecap="butt" d="m432.4908 321.2021l502.51968 0l0 334.2047l-502.51968 0z" fill-rule="evenodd"/><path fill="#00ff00" d="m459.81894 352.63834l-16.4375 7.015625l0 -3.03125l13.015625 -5.390625l-13.015625 -5.34375l0 -3.03125l16.4375 6.9375l0 2.84375zm16.632935 10.84375l-2.828125 0l0 -24.8125l3.046875 0l0 8.859375q1.9375 -2.421875 4.921875 -2.421875q1.65625 0 3.140625 0.671875q1.484375 0.65625 2.4375 1.875q0.953125 1.203125 1.5 2.921875q0.546875 1.703125 0.546875 3.65625q0 4.609375 -2.296875 7.140625q-2.28125 2.515625 -5.484375 2.515625q-3.171875 0 -4.984375 -2.65625l0 2.25zm-0.03125 -9.125q0 3.234375 0.875 4.671875q1.4375 2.359375 3.890625 2.359375q2.0 0 3.453125 -1.734375q1.453125 -1.734375 1.453125 -5.171875q0 -3.515625 -1.390625 -5.1875q-1.390625 -1.6875 -3.375 -1.6875q-2.0 0 -3.453125 1.734375q-1.453125 1.734375 -1.453125 5.015625zm16.46167 9.125l0 -17.96875l2.734375 0l0 2.71875q1.0625 -1.90625 1.9375 -2.515625q0.890625 -0.609375 1.96875 -0.609375q1.53125 0 3.125 0.984375l-1.046875 2.828125q-1.125 -0.671875 -2.234375 -0.671875q-1.0 0 -1.796875 0.609375q-0.796875 0.59375 -1.140625 1.65625q-0.5 1.625 -0.5 3.5625l0 9.40625l-3.046875 0zm10.447052 -8.984375q0 -5.0 2.765625 -7.390625q2.328125 -2.0 5.65625 -2.0q3.703125 0 6.046875 2.4375q2.359375 2.421875 2.359375 6.703125q0 3.46875 -1.046875 5.453125q-1.03125 1.984375 -3.015625 3.09375q-1.984375 1.09375 -4.34375 1.09375q-3.78125 0 -6.109375 -2.421875q-2.3125 -2.421875 -2.3125 -6.96875zm3.125 0q0 3.453125 1.5 5.171875q1.515625 1.71875 3.796875 1.71875q2.265625 0 3.765625 -1.71875q1.515625 -1.734375 1.515625 -5.28125q0 -3.328125 -1.515625 -5.046875q-1.515625 -1.71875 -3.765625 -1.71875q-2.28125 0 -3.796875 1.71875q-1.5 1.703125 -1.5 5.15625zm20.58667 8.984375l-5.5 -17.96875l3.15625 0l2.859375 10.375l1.0625 3.859375q0.078125 -0.296875 0.9375 -3.71875l2.859375 -10.515625l3.125 0l2.6875 10.421875l0.90625 3.4375l1.03125 -3.46875l3.078125 -10.390625l2.953125 0l-5.609375 17.96875l-3.171875 0l-2.859375 -10.765625l-0.6875 -3.0625l-3.640625 13.828125l-3.1875 0zm21.715088 0l0 -17.96875l2.75 0l0 2.546875q1.96875 -2.953125 5.71875 -2.953125q1.625 0 2.984375 0.59375q1.359375 0.578125 2.03125 1.53125q0.6875 0.9375 0.953125 2.234375q0.171875 0.84375 0.171875 2.96875l0 11.046875l-3.046875 0l0 -10.9375q0 -1.859375 -0.359375 -2.78125q-0.359375 -0.921875 -1.265625 -1.46875q-0.890625 -0.546875 -2.109375 -0.546875q-1.953125 0 -3.375 1.234375q-1.40625 1.234375 -1.40625 4.6875l0 9.8125l-3.046875 0zm18.05542 -5.359375l3.015625 -0.484375q0.25 1.8125 1.40625 2.78125q1.171875 0.96875 3.25 0.96875q2.09375 0 3.109375 -0.859375q1.015625 -0.859375 1.015625 -2.0q0 -1.03125 -0.890625 -1.625q-0.625 -0.40625 -3.125 -1.03125q-3.34375 -0.859375 -4.640625 -1.46875q-1.296875 -0.625 -1.96875 -1.703125q-0.65625 -1.09375 -0.65625 -2.421875q0 -1.203125 0.546875 -2.21875q0.546875 -1.03125 1.5 -1.703125q0.703125 -0.53125 1.921875 -0.890625q1.234375 -0.359375 2.640625 -0.359375q2.125 0 3.71875 0.609375q1.59375 0.609375 2.359375 1.65625q0.765625 1.03125 1.046875 2.78125l-2.96875 0.40625q-0.203125 -1.390625 -1.1875 -2.171875q-0.96875 -0.78125 -2.75 -0.78125q-2.09375 0 -3.0 0.703125q-0.890625 0.6875 -0.890625 1.625q0 0.578125 0.375 1.0625q0.375 0.484375 1.171875 0.8125q0.453125 0.171875 2.6875 0.78125q3.234375 0.859375 4.5 1.40625q1.28125 0.546875 2.0 1.59375q0.734375 1.046875 0.734375 2.609375q0 1.53125 -0.890625 2.875q-0.875 1.34375 -2.5625 2.078125q-1.671875 0.734375 -3.78125 0.734375q-3.5 0 -5.34375 -1.453125q-1.828125 -1.453125 -2.34375 -4.3125zm30.28125 3.140625q-1.703125 1.4375 -3.265625 2.03125q-1.5625 0.59375 -3.359375 0.59375q-2.953125 0 -4.546875 -1.4375q-1.59375 -1.453125 -1.59375 -3.703125q0 -1.328125 0.59375 -2.40625q0.609375 -1.09375 1.578125 -1.75q0.984375 -0.671875 2.203125 -1.015625q0.890625 -0.234375 2.703125 -0.453125q3.6875 -0.4375 5.421875 -1.046875q0.03125 -0.625 0.03125 -0.796875q0 -1.859375 -0.875 -2.625q-1.15625 -1.03125 -3.46875 -1.03125q-2.140625 0 -3.171875 0.765625q-1.015625 0.75 -1.515625 2.65625l-2.96875 -0.40625q0.40625 -1.90625 1.328125 -3.078125q0.9375 -1.1875 2.6875 -1.8125q1.765625 -0.640625 4.078125 -0.640625q2.3125 0 3.75 0.546875q1.4375 0.53125 2.109375 1.359375q0.6875 0.8125 0.953125 2.0625q0.15625 0.78125 0.15625 2.8125l0 4.0625q0 4.25 0.1875 5.375q0.203125 1.125 0.765625 2.15625l-3.171875 0q-0.484375 -0.953125 -0.609375 -2.21875zm-0.265625 -6.796875q-1.65625 0.671875 -4.96875 1.140625q-1.875 0.28125 -2.65625 0.625q-0.78125 0.328125 -1.203125 0.984375q-0.421875 0.640625 -0.421875 1.4375q0 1.21875 0.921875 2.03125q0.921875 0.8125 2.703125 0.8125q1.75 0 3.125 -0.765625q1.375 -0.765625 2.015625 -2.109375q0.484375 -1.03125 0.484375 -3.046875l0 -1.109375zm7.77417 9.015625l0 -17.96875l2.734375 0l0 2.71875q1.0625 -1.90625 1.9375 -2.515625q0.890625 -0.609375 1.96875 -0.609375q1.53125 0 3.125 0.984375l-1.046875 2.828125q-1.125 -0.671875 -2.234375 -0.671875q-1.0 0 -1.796875 0.609375q-0.796875 0.59375 -1.140625 1.65625q-0.5 1.625 -0.5 3.5625l0 9.40625l-3.046875 0zm23.306396 -2.21875q-1.703125 1.4375 -3.265625 2.03125q-1.5625 0.59375 -3.359375 0.59375q-2.953125 0 -4.546875 -1.4375q-1.59375 -1.453125 -1.59375 -3.703125q0 -1.328125 0.59375 -2.40625q0.609375 -1.09375 1.578125 -1.75q0.984375 -0.671875 2.203125 -1.015625q0.890625 -0.234375 2.703125 -0.453125q3.6875 -0.4375 5.421875 -1.046875q0.03125 -0.625 0.03125 -0.796875q0 -1.859375 -0.875 -2.625q-1.15625 -1.03125 -3.46875 -1.03125q-2.140625 0 -3.171875 0.765625q-1.015625 0.75 -1.515625 2.65625l-2.96875 -0.40625q0.40625 -1.90625 1.328125 -3.078125q0.9375 -1.1875 2.6875 -1.8125q1.765625 -0.640625 4.078125 -0.640625q2.3125 0 3.75 0.546875q1.4375 0.53125 2.109375 1.359375q0.6875 0.8125 0.953125 2.0625q0.15625 0.78125 0.15625 2.8125l0 4.0625q0 4.25 0.1875 5.375q0.203125 1.125 0.765625 2.15625l-3.171875 0q-0.484375 -0.953125 -0.609375 -2.21875zm-0.265625 -6.796875q-1.65625 0.671875 -4.96875 1.140625q-1.875 0.28125 -2.65625 0.625q-0.78125 0.328125 -1.203125 0.984375q-0.421875 0.640625 -0.421875 1.4375q0 1.21875 0.921875 2.03125q0.921875 0.8125 2.703125 0.8125q1.75 0 3.125 -0.765625q1.375 -0.765625 2.015625 -2.109375q0.484375 -1.03125 0.484375 -3.046875l0 -1.109375zm7.80542 9.015625l0 -24.8125l3.046875 0l0 8.90625q2.140625 -2.46875 5.390625 -2.46875q1.984375 0 3.453125 0.796875q1.484375 0.78125 2.109375 2.171875q0.640625 1.375 0.640625 4.015625l0 11.390625l-3.046875 0l0 -11.390625q0 -2.28125 -1.0 -3.3125q-0.984375 -1.046875 -2.796875 -1.046875q-1.34375 0 -2.546875 0.703125q-1.1875 0.703125 -1.703125 1.90625q-0.5 1.1875 -0.5 3.3125l0 9.828125l-3.046875 0zm19.27417 0l0 -17.96875l2.734375 0l0 2.515625q0.84375 -1.3125 2.25 -2.109375q1.40625 -0.8125 3.1875 -0.8125q2.0 0 3.28125 0.828125q1.28125 0.828125 1.796875 2.3125q2.140625 -3.140625 5.546875 -3.140625q2.6875 0 4.125 1.484375q1.4375 1.46875 1.4375 4.546875l0 12.34375l-3.03125 0l0 -11.328125q0 -1.8125 -0.296875 -2.609375q-0.296875 -0.8125 -1.078125 -1.296875q-0.78125 -0.5 -1.828125 -0.5q-1.890625 0 -3.140625 1.265625q-1.25 1.25 -1.25 4.03125l0 10.4375l-3.046875 0l0 -11.671875q0 -2.03125 -0.75 -3.046875q-0.75 -1.015625 -2.4375 -1.015625q-1.28125 0 -2.375 0.671875q-1.09375 0.671875 -1.59375 1.984375q-0.484375 1.296875 -0.484375 3.75l0 9.328125l-3.046875 0zm27.681396 -7.453125l0 -3.0625l9.359375 0l0 3.0625l-9.359375 0zm12.6658325 7.453125l0 -24.8125l3.046875 0l0 24.8125l-3.046875 0zm19.496338 -2.21875q-1.703125 1.4375 -3.265625 2.03125q-1.5625 0.59375 -3.359375 0.59375q-2.953125 0 -4.546875 -1.4375q-1.59375 -1.453125 -1.59375 -3.703125q0 -1.328125 0.59375 -2.40625q0.609375 -1.09375 1.578125 -1.75q0.984375 -0.671875 2.203125 -1.015625q0.890625 -0.234375 2.703125 -0.453125q3.6875 -0.4375 5.421875 -1.046875q0.03125 -0.625 0.03125 -0.796875q0 -1.859375 -0.875 -2.625q-1.15625 -1.03125 -3.46875 -1.03125q-2.140625 0 -3.171875 0.765625q-1.015625 0.75 -1.515625 2.65625l-2.96875 -0.40625q0.40625 -1.90625 1.328125 -3.078125q0.9375 -1.1875 2.6875 -1.8125q1.765625 -0.640625 4.078125 -0.640625q2.3125 0 3.75 0.546875q1.4375 0.53125 2.109375 1.359375q0.6875 0.8125 0.953125 2.0625q0.15625 0.78125 0.15625 2.8125l0 4.0625q0 4.25 0.1875 5.375q0.203125 1.125 0.765625 2.15625l-3.171875 0q-0.484375 -0.953125 -0.609375 -2.21875zm-0.265625 -6.796875q-1.65625 0.671875 -4.96875 1.140625q-1.875 0.28125 -2.65625 0.625q-0.78125 0.328125 -1.203125 0.984375q-0.421875 0.640625 -0.421875 1.4375q0 1.21875 0.921875 2.03125q0.921875 0.8125 2.703125 0.8125q1.75 0 3.125 -0.765625q1.375 -0.765625 2.015625 -2.109375q0.484375 -1.03125 0.484375 -3.046875l0 -1.109375zm7.80542 15.90625l0 -24.859375l2.78125 0l0 2.328125q0.984375 -1.359375 2.21875 -2.046875q1.234375 -0.6875 2.984375 -0.6875q2.3125 0 4.0625 1.1875q1.765625 1.171875 2.65625 3.34375q0.90625 2.15625 0.90625 4.71875q0 2.765625 -1.0 4.96875q-0.984375 2.203125 -2.875 3.390625q-1.875 1.171875 -3.96875 1.171875q-1.515625 0 -2.734375 -0.640625q-1.203125 -0.640625 -1.984375 -1.625l0 8.75l-3.046875 0zm2.765625 -15.78125q0 3.46875 1.40625 5.140625q1.40625 1.65625 3.390625 1.65625q2.03125 0 3.46875 -1.71875q1.453125 -1.71875 1.453125 -5.328125q0 -3.4375 -1.40625 -5.140625q-1.40625 -1.703125 -3.375 -1.703125q-1.953125 0 -3.453125 1.8125q-1.484375 1.8125 -1.484375 5.28125zm23.164795 6.171875l0.4375 2.6875q-1.28125 0.265625 -2.296875 0.265625q-1.65625 0 -2.578125 -0.515625q-0.90625 -0.53125 -1.28125 -1.375q-0.375 -0.859375 -0.375 -3.609375l0 -10.34375l-2.234375 0l0 -2.359375l2.234375 0l0 -4.453125l3.03125 -1.828125l0 6.28125l3.0625 0l0 2.359375l-3.0625 0l0 10.515625q0 1.296875 0.15625 1.671875q0.15625 0.375 0.515625 0.59375q0.375 0.21875 1.046875 0.21875q0.515625 0 1.34375 -0.109375zm1.8473511 -6.265625q0 -5.0 2.765625 -7.390625q2.328125 -2.0 5.65625 -2.0q3.703125 0 6.046875 2.4375q2.359375 2.421875 2.359375 6.703125q0 3.46875 -1.046875 5.453125q-1.03125 1.984375 -3.015625 3.09375q-1.984375 1.09375 -4.34375 1.09375q-3.78125 0 -6.109375 -2.421875q-2.3125 -2.421875 -2.3125 -6.96875zm3.125 0q0 3.453125 1.5 5.171875q1.515625 1.71875 3.796875 1.71875q2.265625 0 3.765625 -1.71875q1.515625 -1.734375 1.515625 -5.28125q0 -3.328125 -1.515625 -5.046875q-1.515625 -1.71875 -3.765625 -1.71875q-2.28125 0 -3.796875 1.71875q-1.5 1.703125 -1.5 5.15625zm17.27417 15.875l0 -24.859375l2.78125 0l0 2.328125q0.984375 -1.359375 2.21875 -2.046875q1.234375 -0.6875 2.984375 -0.6875q2.3125 0 4.0625 1.1875q1.765625 1.171875 2.65625 3.34375q0.90625 2.15625 0.90625 4.71875q0 2.765625 -1.0 4.96875q-0.984375 2.203125 -2.875 3.390625q-1.875 1.171875 -3.96875 1.171875q-1.515625 0 -2.734375 -0.640625q-1.203125 -0.640625 -1.984375 -1.625l0 8.75l-3.046875 0zm2.765625 -15.78125q0 3.46875 1.40625 5.140625q1.40625 1.65625 3.390625 1.65625q2.03125 0 3.46875 -1.71875q1.453125 -1.71875 1.453125 -5.328125q0 -3.4375 -1.40625 -5.140625q-1.40625 -1.703125 -3.375 -1.703125q-1.953125 0 -3.453125 1.8125q-1.484375 1.8125 -1.484375 5.28125z" fill-rule="nonzero"/><path fill="#c9daf8" d="m60.42433 134.0201l0 0c-3.972496 -30.129646 9.07 -59.95617 33.593063 -76.823074c24.523071 -16.866905 56.225906 -17.816101 81.65582 -2.4448166l0 0c9.008041 -17.518623 25.495407 -29.614027 44.474976 -32.62758c18.979568 -3.0135555 38.222107 3.4086914 51.907135 17.324133l0 0c7.673706 -15.8835125 22.74115 -26.555202 39.85565 -28.228199c17.114471 -1.6729984 33.85385 5.8894644 44.278168 20.003838l0 0c13.863647 -16.836483 35.92108 -23.92534 56.62793 -18.199188c20.706818 5.7261534 36.343933 23.23885 40.14502 44.960247l0 0c16.985352 4.7816315 31.133759 16.937176 38.789795 33.326023c7.656006 16.388847 8.0686035 35.403297 1.131134 52.130615l0 0c16.725586 22.466629 20.638153 52.403122 10.277527 78.63774c-10.360626 26.234604 -33.437836 44.825867 -60.61963 48.835876c-0.19158936 24.6221 -13.275482 47.215057 -34.208588 59.070557c-20.933105 11.855499 -46.446625 11.122223 -66.70654 -1.9171448l0 0c-8.629669 29.489227 -32.91925 51.187134 -62.374786 55.71942c-29.455536 4.532257 -58.796524 -8.913605 -75.34657 -34.528503l0 0c-20.286896 12.625671 -44.629486 16.262726 -67.536575 10.090729c-22.90709 -6.171997 -42.44909 -21.633179 -54.21772 -42.895752l0 0c-20.730667 2.5037231 -40.774353 -8.58136 -50.183453 -27.753784c-9.4091015 -19.172424 -6.180641 -42.350815 8.083103 -58.031845l0 0c-18.492289 -11.233124 -27.92817 -33.52339 -23.3872 -55.247284c4.540968 -21.723892 22.029789 -37.95871 43.34672 -40.238632z" fill-rule="evenodd"/><path fill="#000000" fill-opacity="0.0" d="m40.055023 230.66725l0 0c8.72657 5.300949 18.8078 7.7055817 28.89013 6.891037m13.205681 78.896484c4.3357697 -0.5236206 8.585648 -1.6325378 12.640038 -3.2980652m109.10819 36.101746c-3.0494995 -4.7197876 -5.6026917 -9.763275 -7.616089 -15.044556m145.34273 -6.147278l0 0c1.5733032 -5.3763123 2.592682 -10.909729 3.0411072 -16.507904m97.87021 -40.643433c0.20397949 -26.21405 -14.222321 -50.215897 -37.082397 -61.696045m87.42401 -65.774796c-3.702118 8.926376 -9.353821 16.844833 -16.511932 23.134537m-23.405518 -108.59352l0 0c0.6307678 3.6046715 0.922699 7.2635193 0.8717346 10.925835m-97.64307 -37.685806l0 0c-3.4582825 4.1998634 -6.3074646 8.893162 -8.458832 13.93375m-75.67575 -5.71122l0 0c-1.8429871 3.814705 -3.2191772 7.8513184 -4.096924 12.016853m-92.28662 3.286911l0 0c5.380951 3.252552 10.35907 7.167351 14.824982 11.65839m-130.07237 67.609924l0 0c0.54751205 4.1526337 1.4126091 8.254089 2.5871964 12.265961" fill-rule="evenodd"/><path stroke="#ffffff" stroke-width="4.0" stroke-linejoin="round" stroke-linecap="butt" d="m60.42433 134.0201l0 0c-3.972496 -30.129646 9.07 -59.95617 33.593063 -76.823074c24.523071 -16.866905 56.225906 -17.816101 81.65582 -2.4448166l0 0c9.008041 -17.518623 25.495407 -29.614027 44.474976 -32.62758c18.979568 -3.0135555 38.222107 3.4086914 51.907135 17.324133l0 0c7.673706 -15.8835125 22.74115 -26.555202 39.85565 -28.228199c17.114471 -1.6729984 33.85385 5.8894644 44.278168 20.003838l0 0c13.863647 -16.836483 35.92108 -23.92534 56.62793 -18.199188c20.706818 5.7261534 36.343933 23.23885 40.14502 44.960247l0 0c16.985352 4.7816315 31.133759 16.937176 38.789795 33.326023c7.656006 16.388847 8.0686035 35.403297 1.131134 52.130615l0 0c16.725586 22.466629 20.638153 52.403122 10.277527 78.63774c-10.360626 26.234604 -33.437836 44.825867 -60.61963 48.835876c-0.19158936 24.6221 -13.275482 47.215057 -34.208588 59.070557c-20.933105 11.855499 -46.446625 11.122223 -66.70654 -1.9171448l0 0c-8.629669 29.489227 -32.91925 51.187134 -62.374786 55.71942c-29.455536 4.532257 -58.796524 -8.913605 -75.34657 -34.528503l0 0c-20.286896 12.625671 -44.629486 16.262726 -67.536575 10.090729c-22.90709 -6.171997 -42.44909 -21.633179 -54.21772 -42.895752l0 0c-20.730667 2.5037231 -40.774353 -8.58136 -50.183453 -27.753784c-9.4091015 -19.172424 -6.180641 -42.350815 8.083103 -58.031845l0 0c-18.492289 -11.233124 -27.92817 -33.52339 -23.3872 -55.247284c4.540968 -21.723892 22.029789 -37.95871 43.34672 -40.238632z" fill-rule="evenodd"/><path stroke="#ffffff" stroke-width="4.0" stroke-linejoin="round" stroke-linecap="butt" d="m40.055023 230.66725l0 0c8.72657 5.300949 18.8078 7.7055817 28.89013 6.891037m13.205681 78.896484c4.3357697 -0.5236206 8.585648 -1.6325378 12.640038 -3.2980652m109.10819 36.101746c-3.0494995 -4.7197876 -5.6026917 -9.763275 -7.616089 -15.044556m145.34273 -6.147278l0 0c1.5733032 -5.3763123 2.592682 -10.909729 3.0411072 -16.507904m97.87021 -40.643433c0.20397949 -26.21405 -14.222321 -50.215897 -37.082397 -61.696045m87.42401 -65.774796c-3.702118 8.926376 -9.353821 16.844833 -16.511932 23.134537m-23.405518 -108.59352l0 0c0.6307678 3.6046715 0.922699 7.2635193 0.8717346 10.925835m-97.64307 -37.685806l0 0c-3.4582825 4.1998634 -6.3074646 8.893162 -8.458832 13.93375m-75.67575 -5.71122l0 0c-1.8429871 3.814705 -3.2191772 7.8513184 -4.096924 12.016853m-92.28662 3.286911l0 0c5.380951 3.252552 10.35907 7.167351 14.824982 11.65839m-130.07237 67.609924l0 0c0.54751205 4.1526337 1.4126091 8.254089 2.5871964 12.265961" fill-rule="evenodd"/><path fill="#000000" d="m94.381424 105.93455l2.609375 0.390625q0.171875 1.21875 0.921875 1.765625q1.0 0.75 2.734375 0.75q1.875 0 2.890625 -0.75q1.015625 -0.75 1.375 -2.09375q0.21875 -0.828125 0.203125 -3.453125q-1.765625 2.078125 -4.40625 2.078125q-3.28125 0 -5.078125 -2.359375q-1.796875 -2.375 -1.796875 -5.671875q0 -2.28125 0.828125 -4.203125q0.828125 -1.921875 2.390625 -2.96875q1.5625 -1.046875 3.671875 -1.046875q2.8125 0 4.640625 2.265625l0 -1.90625l2.484375 0l0 13.734375q0 3.71875 -0.765625 5.265625q-0.75 1.546875 -2.390625 2.4375q-1.640625 0.90625 -4.03125 0.90625q-2.84375 0 -4.59375 -1.28125q-1.75 -1.28125 -1.6875 -3.859375zm2.21875 -9.546875q0 3.125 1.234375 4.5625q1.25 1.4375 3.125 1.4375q1.859375 0 3.109375 -1.421875q1.265625 -1.4375 1.265625 -4.484375q0 -2.921875 -1.296875 -4.40625q-1.296875 -1.484375 -3.125 -1.484375q-1.796875 0 -3.0625 1.46875q-1.25 1.453125 -1.25 4.328125zm15.330795 -10.609375l0 -3.09375l2.703125 0l0 3.09375l-2.703125 0zm0 18.84375l0 -15.890625l2.703125 0l0 15.890625l-2.703125 0zm12.685837 -2.40625l0.390625 2.375q-1.140625 0.234375 -2.046875 0.234375q-1.453125 0 -2.265625 -0.453125q-0.8125 -0.46875 -1.140625 -1.21875q-0.328125 -0.765625 -0.328125 -3.1875l0 -9.140625l-1.984375 0l0 -2.09375l1.984375 0l0 -3.9375l2.671875 -1.625l0 5.5625l2.71875 0l0 2.09375l-2.71875 0l0 9.296875q0 1.140625 0.140625 1.484375q0.15625 0.328125 0.46875 0.515625q0.328125 0.1875 0.921875 0.1875q0.453125 0 1.1875 -0.09375zm2.6266632 2.40625l0 -21.9375l2.703125 0l0 7.859375q1.875 -2.171875 4.75 -2.171875q1.765625 0 3.0625 0.703125q1.3125 0.6875 1.875 1.921875q0.5625 1.21875 0.5625 3.546875l0 10.078125l-2.6875 0l0 -10.078125q0 -2.015625 -0.890625 -2.9375q-0.875 -0.921875 -2.46875 -0.921875q-1.203125 0 -2.265625 0.625q-1.046875 0.625 -1.5 1.6875q-0.4375 1.0625 -0.4375 2.921875l0 8.703125l-2.703125 0zm27.47142 0l0 -2.328125q-1.859375 2.6875 -5.046875 2.6875q-1.40625 0 -2.625 -0.53125q-1.21875 -0.546875 -1.8125 -1.359375q-0.59375 -0.8125 -0.828125 -2.0q-0.171875 -0.796875 -0.171875 -2.515625l0 -9.84375l2.703125 0l0 8.8125q0 2.109375 0.15625 2.84375q0.265625 1.0625 1.078125 1.671875q0.828125 0.609375 2.046875 0.609375q1.203125 0 2.265625 -0.625q1.0625 -0.625 1.5 -1.6875q0.453125 -1.078125 0.453125 -3.109375l0 -8.515625l2.6875 0l0 15.890625l-2.40625 0zm9.112045 0l-2.5 0l0 -21.9375l2.703125 0l0 7.828125q1.703125 -2.140625 4.359375 -2.140625q1.453125 0 2.765625 0.59375q1.3125 0.578125 2.15625 1.65625q0.84375 1.0625 1.328125 2.578125q0.484375 1.515625 0.484375 3.234375q0 4.09375 -2.03125 6.328125q-2.015625 2.21875 -4.84375 2.21875q-2.8125 0 -4.421875 -2.34375l0 1.984375zm-0.03125 -8.0625q0 2.859375 0.78125 4.125q1.28125 2.078125 3.453125 2.078125q1.765625 0 3.046875 -1.53125q1.28125 -1.53125 1.28125 -4.578125q0 -3.109375 -1.234375 -4.59375q-1.234375 -1.484375 -2.984375 -1.484375q-1.765625 0 -3.0625 1.546875q-1.28125 1.53125 -1.28125 4.4375zm15.362045 8.0625l0 -3.0625l3.078125 0l0 3.0625l-3.078125 0zm18.126663 -5.828125l2.65625 0.34375q-0.4375 2.75 -2.234375 4.296875q-1.78125 1.546875 -4.390625 1.546875q-3.25 0 -5.234375 -2.125q-1.984375 -2.140625 -1.984375 -6.125q0 -2.578125 0.84375 -4.5q0.859375 -1.9375 2.59375 -2.890625q1.75 -0.96875 3.796875 -0.96875q2.59375 0 4.234375 1.3125q1.65625 1.296875 2.125 3.703125l-2.625 0.40625q-0.375 -1.59375 -1.328125 -2.40625q-0.953125 -0.8125 -2.296875 -0.8125q-2.03125 0 -3.3125 1.46875q-1.265625 1.453125 -1.265625 4.609375q0 3.203125 1.21875 4.65625q1.234375 1.453125 3.203125 1.453125q1.59375 0 2.65625 -0.96875q1.0625 -0.96875 1.34375 -3.0zm3.953125 -2.125q0 -4.40625 2.453125 -6.53125q2.0625 -1.765625 5.0 -1.765625q3.28125 0 5.359375 2.15625q2.078125 2.140625 2.078125 5.921875q0 3.0625 -0.921875 4.828125q-0.90625 1.75 -2.671875 2.734375q-1.765625 0.96875 -3.84375 0.96875q-3.328125 0 -5.390625 -2.140625q-2.0625 -2.140625 -2.0625 -6.171875zm2.765625 0q0 3.0625 1.328125 4.578125q1.34375 1.515625 3.359375 1.515625q2.015625 0 3.34375 -1.515625q1.328125 -1.53125 1.328125 -4.65625q0 -2.953125 -1.34375 -4.46875q-1.328125 -1.53125 -3.328125 -1.53125q-2.015625 0 -3.359375 1.515625q-1.328125 1.515625 -1.328125 4.5625zm15.28392 7.953125l0 -15.890625l2.421875 0l0 2.21875q0.734375 -1.15625 1.984375 -1.859375q1.25 -0.71875 2.828125 -0.71875q1.765625 0 2.890625 0.734375q1.140625 0.71875 1.59375 2.046875q1.890625 -2.78125 4.921875 -2.78125q2.359375 0 3.625 1.3125q1.28125 1.296875 1.28125 4.03125l0 10.90625l-2.6875 0l0 -10.015625q0 -1.609375 -0.265625 -2.3125q-0.25 -0.71875 -0.9375 -1.15625q-0.6875 -0.4375 -1.625 -0.4375q-1.671875 0 -2.78125 1.125q-1.109375 1.109375 -1.109375 3.5625l0 9.234375l-2.6875 0l0 -10.328125q0 -1.796875 -0.65625 -2.6875q-0.65625 -0.90625 -2.15625 -0.90625q-1.140625 0 -2.109375 0.609375q-0.96875 0.59375 -1.40625 1.75q-0.421875 1.140625 -0.421875 3.3125l0 8.25l-2.703125 0z" fill-rule="nonzero"/><path fill="#cccccc" fill-opacity="0.4525" d="m195.79886 118.520905l118.72012 0l0 176.3768l-118.72012 0z" fill-rule="evenodd"/><path stroke="#000000" stroke-width="3.0" stroke-linejoin="round" stroke-linecap="butt" d="m195.79886 118.520905l118.72012 0l0 176.3768l-118.72012 0z" fill-rule="evenodd"/><path fill="#b4a7d6" d="m208.13684 244.10768l0 0c0 2.4631195 21.048523 4.4598694 47.01317 4.4598694c25.964645 0 47.01317 -1.9967499 47.01317 -4.4598694l0 26.759232c0 2.4631348 -21.048523 4.4598694 -47.01317 4.4598694c-25.964645 0 -47.01317 -1.9967346 -47.01317 -4.4598694z" fill-rule="evenodd"/><path fill="#d2cae6" d="m208.13684 244.10768l0 0c0 -2.4631195 21.048523 -4.4598694 47.01317 -4.4598694c25.964645 0 47.01317 1.9967499 47.01317 4.4598694l0 0c0 2.4631195 -21.048523 4.4598694 -47.01317 4.4598694c-25.964645 0 -47.01317 -1.9967499 -47.01317 -4.4598694z" fill-rule="evenodd"/><path fill="#000000" fill-opacity="0.0" d="m302.16318 244.10768l0 0c0 2.4631195 -21.048523 4.4598694 -47.01317 4.4598694c-25.964645 0 -47.01317 -1.9967499 -47.01317 -4.4598694l0 0c0 -2.4631195 21.048523 -4.4598694 47.01317 -4.4598694c25.964645 0 47.01317 1.9967499 47.01317 4.4598694l0 26.759232c0 2.4631348 -21.048523 4.4598694 -47.01317 4.4598694c-25.964645 0 -47.01317 -1.9967346 -47.01317 -4.4598694l0 -26.759232" fill-rule="evenodd"/><path stroke="#351c75" stroke-width="3.0" stroke-linejoin="round" stroke-linecap="butt" d="m302.16318 244.10768l0 0c0 2.4631195 -21.048523 4.4598694 -47.01317 4.4598694c-25.964645 0 -47.01317 -1.9967499 -47.01317 -4.4598694l0 0c0 -2.4631195 21.048523 -4.4598694 47.01317 -4.4598694c25.964645 0 47.01317 1.9967499 47.01317 4.4598694l0 26.759232c0 2.4631348 -21.048523 4.4598694 -47.01317 4.4598694c-25.964645 0 -47.01317 -1.9967346 -47.01317 -4.4598694l0 -26.759232" fill-rule="evenodd"/><path fill="#b4a7d6" d="m208.13684 222.12585l0 0c0 2.3301392 21.048523 4.219101 47.01317 4.219101c25.964645 0 47.01317 -1.8889618 47.01317 -4.219101l0 25.314545c0 2.3301392 -21.048523 4.2190857 -47.01317 4.2190857c-25.964645 0 -47.01317 -1.8889465 -47.01317 -4.2190857z" fill-rule="evenodd"/><path fill="#d2cae6" d="m208.13684 222.12585l0 0c0 -2.3301392 21.048523 -4.2190857 47.01317 -4.2190857c25.964645 0 47.01317 1.8889465 47.01317 4.2190857l0 0c0 2.3301392 -21.048523 4.219101 -47.01317 4.219101c-25.964645 0 -47.01317 -1.8889618 -47.01317 -4.219101z" fill-rule="evenodd"/><path fill="#000000" fill-opacity="0.0" d="m302.16318 222.12585l0 0c0 2.3301392 -21.048523 4.219101 -47.01317 4.219101c-25.964645 0 -47.01317 -1.8889618 -47.01317 -4.219101l0 0c0 -2.3301392 21.048523 -4.2190857 47.01317 -4.2190857c25.964645 0 47.01317 1.8889465 47.01317 4.2190857l0 25.314545c0 2.3301392 -21.048523 4.2190857 -47.01317 4.2190857c-25.964645 0 -47.01317 -1.8889465 -47.01317 -4.2190857l0 -25.314545" fill-rule="evenodd"/><path stroke="#351c75" stroke-width="3.0" stroke-linejoin="round" stroke-linecap="butt" d="m302.16318 222.12585l0 0c0 2.3301392 -21.048523 4.219101 -47.01317 4.219101c-25.964645 0 -47.01317 -1.8889618 -47.01317 -4.219101l0 0c0 -2.3301392 21.048523 -4.2190857 47.01317 -4.2190857c25.964645 0 47.01317 1.8889465 47.01317 4.2190857l0 25.314545c0 2.3301392 -21.048523 4.2190857 -47.01317 4.2190857c-25.964645 0 -47.01317 -1.8889465 -47.01317 -4.2190857l0 -25.314545" fill-rule="evenodd"/><path fill="#b4a7d6" d="m208.13719 186.06514l0 0c0 3.2113953 21.048508 5.814728 47.013153 5.814728c25.964645 0 47.01317 -2.6033325 47.01317 -5.814728l0 34.88835c0 3.2113953 -21.048523 5.814728 -47.01317 5.814728c-25.964645 0 -47.013153 -2.6033325 -47.013153 -5.814728z" fill-rule="evenodd"/><path fill="#d2cae6" d="m208.13719 186.06514l0 0c0 -3.21138 21.048508 -5.8147125 47.013153 -5.8147125c25.964645 0 47.01317 2.6033325 47.01317 5.8147125l0 0c0 3.2113953 -21.048523 5.814728 -47.01317 5.814728c-25.964645 0 -47.013153 -2.6033325 -47.013153 -5.814728z" fill-rule="evenodd"/><path fill="#000000" fill-opacity="0.0" d="m302.1635 186.06514l0 0c0 3.2113953 -21.048523 5.814728 -47.01317 5.814728c-25.964645 0 -47.013153 -2.6033325 -47.013153 -5.814728l0 0c0 -3.21138 21.048508 -5.8147125 47.013153 -5.8147125c25.964645 0 47.01317 2.6033325 47.01317 5.8147125l0 34.88835c0 3.2113953 -21.048523 5.814728 -47.01317 5.814728c-25.964645 0 -47.013153 -2.6033325 -47.013153 -5.814728l0 -34.88835" fill-rule="evenodd"/><path stroke="#351c75" stroke-width="3.0" stroke-linejoin="round" stroke-linecap="butt" d="m302.1635 186.06514l0 0c0 3.2113953 -21.048523 5.814728 -47.01317 5.814728c-25.964645 0 -47.013153 -2.6033325 -47.013153 -5.814728l0 0c0 -3.21138 21.048508 -5.8147125 47.013153 -5.8147125c25.964645 0 47.01317 2.6033325 47.01317 5.8147125l0 34.88835c0 3.2113953 -21.048523 5.814728 -47.01317 5.814728c-25.964645 0 -47.013153 -2.6033325 -47.013153 -5.814728l0 -34.88835" fill-rule="evenodd"/><path fill="#b4a7d6" d="m208.13684 172.3563l0 0c0 2.3301392 21.048523 4.2190857 47.01317 4.2190857c25.964645 0 47.01317 -1.8889465 47.01317 -4.2190857l0 25.31453c0 2.3301392 -21.048523 4.219101 -47.01317 4.219101c-25.964645 0 -47.01317 -1.8889618 -47.01317 -4.219101z" fill-rule="evenodd"/><path fill="#d2cae6" d="m208.13684 172.3563l0 0c0 -2.3301392 21.048523 -4.2190857 47.01317 -4.2190857c25.964645 0 47.01317 1.8889465 47.01317 4.2190857l0 0c0 2.3301392 -21.048523 4.2190857 -47.01317 4.2190857c-25.964645 0 -47.01317 -1.8889465 -47.01317 -4.2190857z" fill-rule="evenodd"/><path fill="#000000" fill-opacity="0.0" d="m302.16318 172.3563l0 0c0 2.3301392 -21.048523 4.2190857 -47.01317 4.2190857c-25.964645 0 -47.01317 -1.8889465 -47.01317 -4.2190857l0 0c0 -2.3301392 21.048523 -4.2190857 47.01317 -4.2190857c25.964645 0 47.01317 1.8889465 47.01317 4.2190857l0 25.31453c0 2.3301392 -21.048523 4.219101 -47.01317 4.219101c-25.964645 0 -47.01317 -1.8889618 -47.01317 -4.219101l0 -25.31453" fill-rule="evenodd"/><path stroke="#351c75" stroke-width="3.0" stroke-linejoin="round" stroke-linecap="butt" d="m302.16318 172.3563l0 0c0 2.3301392 -21.048523 4.2190857 -47.01317 4.2190857c-25.964645 0 -47.01317 -1.8889465 -47.01317 -4.2190857l0 0c0 -2.3301392 21.048523 -4.2190857 47.01317 -4.2190857c25.964645 0 47.01317 1.8889465 47.01317 4.2190857l0 25.31453c0 2.3301392 -21.048523 4.219101 -47.01317 4.219101c-25.964645 0 -47.01317 -1.8889618 -47.01317 -4.219101l0 -25.31453" fill-rule="evenodd"/><path fill="#cccccc" fill-opacity="0.4525" d="m705.27344 383.29752l185.53485 0l0 237.43027l-185.53485 0z" fill-rule="evenodd"/><path stroke="#000000" stroke-width="3.0" stroke-linejoin="round" stroke-linecap="butt" d="m705.27344 383.29752l185.53485 0l0 237.43027l-185.53485 0z" fill-rule="evenodd"/><path fill="#b4a7d6" d="m724.5551 552.3566l0 0c0 3.3157349 32.89447 6.003662 73.4718 6.003662c40.577393 0 73.4718 -2.6879272 73.4718 -6.003662l0 36.022034c0 3.3157349 -32.89441 6.003723 -73.4718 6.003723c-40.57733 0 -73.4718 -2.6879883 -73.4718 -6.003723z" fill-rule="evenodd"/><path fill="#d2cae6" d="m724.5551 552.3566l0 0c0 -3.3157349 32.89447 -6.003662 73.4718 -6.003662c40.577393 0 73.4718 2.6879272 73.4718 6.003662l0 0c0 3.3157349 -32.89441 6.003662 -73.4718 6.003662c-40.57733 0 -73.4718 -2.6879272 -73.4718 -6.003662z" fill-rule="evenodd"/><path fill="#000000" fill-opacity="0.0" d="m871.4987 552.3566l0 0c0 3.3157349 -32.89441 6.003662 -73.4718 6.003662c-40.57733 0 -73.4718 -2.6879272 -73.4718 -6.003662l0 0c0 -3.3157349 32.89447 -6.003662 73.4718 -6.003662c40.577393 0 73.4718 2.6879272 73.4718 6.003662l0 36.022034c0 3.3157349 -32.89441 6.003723 -73.4718 6.003723c-40.57733 0 -73.4718 -2.6879883 -73.4718 -6.003723l0 -36.022034" fill-rule="evenodd"/><path stroke="#351c75" stroke-width="3.0" stroke-linejoin="round" stroke-linecap="butt" d="m871.4987 552.3566l0 0c0 3.3157349 -32.89441 6.003662 -73.4718 6.003662c-40.57733 0 -73.4718 -2.6879272 -73.4718 -6.003662l0 0c0 -3.3157349 32.89447 -6.003662 73.4718 -6.003662c40.577393 0 73.4718 2.6879272 73.4718 6.003662l0 36.022034c0 3.3157349 -32.89441 6.003723 -73.4718 6.003723c-40.57733 0 -73.4718 -2.6879883 -73.4718 -6.003723l0 -36.022034" fill-rule="evenodd"/><path fill="#b4a7d6" d="m724.5551 522.76575c0 3.1367188 32.89447 5.6795044 73.4718 5.6795044c40.577393 0 73.4718 -2.5427856 73.4718 -5.6795044l0 34.07721c0 3.1367798 -32.89441 5.6795654 -73.4718 5.6795654c-40.57733 0 -73.4718 -2.5427856 -73.4718 -5.6795654z" fill-rule="evenodd"/><path fill="#d2cae6" d="m724.5551 522.76575c0 -3.1367798 32.89447 -5.6795654 73.4718 -5.6795654c40.577393 0 73.4718 2.5427856 73.4718 5.6795654l0 0c0 3.1367188 -32.89441 5.6795044 -73.4718 5.6795044c-40.57733 0 -73.4718 -2.5427856 -73.4718 -5.6795044z" fill-rule="evenodd"/><path fill="#000000" fill-opacity="0.0" d="m871.4987 522.76575l0 0c0 3.1367188 -32.89441 5.6795044 -73.4718 5.6795044c-40.57733 0 -73.4718 -2.5427856 -73.4718 -5.6795044c0 -3.1367798 32.89447 -5.6795654 73.4718 -5.6795654c40.577393 0 73.4718 2.5427856 73.4718 5.6795654l0 34.07721c0 3.1367798 -32.89441 5.6795654 -73.4718 5.6795654c-40.57733 0 -73.4718 -2.5427856 -73.4718 -5.6795654l0 -34.07721" fill-rule="evenodd"/><path stroke="#351c75" stroke-width="3.0" stroke-linejoin="round" stroke-linecap="butt" d="m871.4987 522.76575l0 0c0 3.1367188 -32.89441 5.6795044 -73.4718 5.6795044c-40.57733 0 -73.4718 -2.5427856 -73.4718 -5.6795044c0 -3.1367798 32.89447 -5.6795654 73.4718 -5.6795654c40.577393 0 73.4718 2.5427856 73.4718 5.6795654l0 34.07721c0 3.1367798 -32.89441 5.6795654 -73.4718 5.6795654c-40.57733 0 -73.4718 -2.5427856 -73.4718 -5.6795654l0 -34.07721" fill-rule="evenodd"/><path fill="#b4a7d6" d="m724.55566 474.22244l0 0c0 4.3230286 32.89441 7.8275146 73.4718 7.8275146c40.57733 0 73.4718 -3.504486 73.4718 -7.8275146l0 46.96512c0 4.322998 -32.89447 7.8275146 -73.4718 7.8275146c-40.577393 0 -73.4718 -3.5045166 -73.4718 -7.8275146z" fill-rule="evenodd"/><path fill="#d2cae6" d="m724.55566 474.22244l0 0c0 -4.322998 32.89441 -7.8275146 73.4718 -7.8275146c40.57733 0 73.4718 3.5045166 73.4718 7.8275146l0 0c0 4.3230286 -32.89447 7.8275146 -73.4718 7.8275146c-40.577393 0 -73.4718 -3.504486 -73.4718 -7.8275146z" fill-rule="evenodd"/><path fill="#000000" fill-opacity="0.0" d="m871.49927 474.22244l0 0c0 4.3230286 -32.89447 7.8275146 -73.4718 7.8275146c-40.577393 0 -73.4718 -3.504486 -73.4718 -7.8275146l0 0c0 -4.322998 32.89441 -7.8275146 73.4718 -7.8275146c40.57733 0 73.4718 3.5045166 73.4718 7.8275146l0 46.96512c0 4.322998 -32.89447 7.8275146 -73.4718 7.8275146c-40.577393 0 -73.4718 -3.5045166 -73.4718 -7.8275146l0 -46.96512" fill-rule="evenodd"/><path stroke="#351c75" stroke-width="3.0" stroke-linejoin="round" stroke-linecap="butt" d="m871.49927 474.22244l0 0c0 4.3230286 -32.89447 7.8275146 -73.4718 7.8275146c-40.577393 0 -73.4718 -3.504486 -73.4718 -7.8275146l0 0c0 -4.322998 32.89441 -7.8275146 73.4718 -7.8275146c40.57733 0 73.4718 3.5045166 73.4718 7.8275146l0 46.96512c0 4.322998 -32.89447 7.8275146 -73.4718 7.8275146c-40.577393 0 -73.4718 -3.5045166 -73.4718 -7.8275146l0 -46.96512" fill-rule="evenodd"/><path fill="#b4a7d6" d="m724.5551 455.76822c0 3.1367188 32.89447 5.6795654 73.4718 5.6795654c40.577393 0 73.4718 -2.5428467 73.4718 -5.6795654l0 34.07727c0 3.1367188 -32.89441 5.679535 -73.4718 5.679535c-40.57733 0 -73.4718 -2.5428162 -73.4718 -5.679535z" fill-rule="evenodd"/><path fill="#d2cae6" d="m724.5551 455.76822c0 -3.1367188 32.89447 -5.679535 73.4718 -5.679535c40.577393 0 73.4718 2.5428162 73.4718 5.679535l0 0c0 3.1367188 -32.89441 5.6795654 -73.4718 5.6795654c-40.57733 0 -73.4718 -2.5428467 -73.4718 -5.6795654z" fill-rule="evenodd"/><path fill="#000000" fill-opacity="0.0" d="m871.4987 455.76822l0 0c0 3.1367188 -32.89441 5.6795654 -73.4718 5.6795654c-40.57733 0 -73.4718 -2.5428467 -73.4718 -5.6795654c0 -3.1367188 32.89447 -5.679535 73.4718 -5.679535c40.577393 0 73.4718 2.5428162 73.4718 5.679535l0 34.07727c0 3.1367188 -32.89441 5.679535 -73.4718 5.679535c-40.57733 0 -73.4718 -2.5428162 -73.4718 -5.679535l0 -34.07727" fill-rule="evenodd"/><path stroke="#351c75" stroke-width="3.0" stroke-linejoin="round" stroke-linecap="butt" d="m871.4987 455.76822l0 0c0 3.1367188 -32.89441 5.6795654 -73.4718 5.6795654c-40.57733 0 -73.4718 -2.5428467 -73.4718 -5.6795654c0 -3.1367188 32.89447 -5.679535 73.4718 -5.679535c40.577393 0 73.4718 2.5428162 73.4718 5.679535l0 34.07727c0 3.1367188 -32.89441 5.679535 -73.4718 5.679535c-40.57733 0 -73.4718 -2.5428162 -73.4718 -5.679535l0 -34.07727" fill-rule="evenodd"/><path fill="#b7b7b7" d="m418.97638 720.00525l16.149597 -64.59845l503.56696 0l-16.149597 64.59845z" fill-rule="evenodd"/><path stroke="#b7b7b7" stroke-width="8.0" stroke-linejoin="round" stroke-linecap="butt" d="m418.97638 720.00525l16.149597 -64.59845l503.56696 0l-16.149597 64.59845z" fill-rule="evenodd"/><path fill="#000000" d="m434.97638 670.20996l1.7007751 -6.8031616l490.99216 0l-1.7008057 6.8031616z" fill-rule="evenodd"/><path stroke="#000000" stroke-width="8.0" stroke-linejoin="round" stroke-linecap="butt" d="m434.97638 670.20996l1.7007751 -6.8031616l490.99216 0l-1.7008057 6.8031616z" fill-rule="evenodd"/><path fill="#000000" d="m442.97638 705.2651l4.464569 -17.858276l17.614166 0l-4.464569 17.858276z" fill-rule="evenodd"/><path stroke="#000000" stroke-width="8.0" stroke-linejoin="round" stroke-linecap="butt" d="m442.97638 705.2651l4.464569 -17.858276l17.614166 0l-4.464569 17.858276z" fill-rule="evenodd"/><path fill="#000000" d="m474.97638 705.2651l4.464569 -17.858276l17.614166 0l-4.464569 17.858276z" fill-rule="evenodd"/><path stroke="#000000" stroke-width="8.0" stroke-linejoin="round" stroke-linecap="butt" d="m474.97638 705.2651l4.464569 -17.858276l17.614166 0l-4.464569 17.858276z" fill-rule="evenodd"/><path fill="#000000" d="m506.97638 705.2651l4.464569 -17.858276l17.614166 0l-4.4645386 17.858276z" fill-rule="evenodd"/><path stroke="#000000" stroke-width="8.0" stroke-linejoin="round" stroke-linecap="butt" d="m506.97638 705.2651l4.464569 -17.858276l17.614166 0l-4.4645386 17.858276z" fill-rule="evenodd"/><path fill="#000000" d="m538.9764 705.2651l4.4645386 -17.858276l17.614197 0l-4.4645386 17.858276z" fill-rule="evenodd"/><path stroke="#000000" stroke-width="8.0" stroke-linejoin="round" stroke-linecap="butt" d="m538.9764 705.2651l4.4645386 -17.858276l17.614197 0l-4.4645386 17.858276z" fill-rule="evenodd"/><path fill="#000000" d="m570.9764 705.2651l4.4645386 -17.858276l17.614197 0l-4.4645386 17.858276z" fill-rule="evenodd"/><path stroke="#000000" stroke-width="8.0" stroke-linejoin="round" stroke-linecap="butt" d="m570.9764 705.2651l4.4645386 -17.858276l17.614197 0l-4.4645386 17.858276z" fill-rule="evenodd"/><path fill="#000000" d="m602.9764 705.2651l4.4645386 -17.858276l17.614197 0l-4.4645386 17.858276z" fill-rule="evenodd"/><path stroke="#000000" stroke-width="8.0" stroke-linejoin="round" stroke-linecap="butt" d="m602.9764 705.2651l4.4645386 -17.858276l17.614197 0l-4.4645386 17.858276z" fill-rule="evenodd"/><path fill="#000000" d="m634.9764 705.2651l4.4645386 -17.858276l17.614197 0l-4.4645386 17.858276z" fill-rule="evenodd"/><path stroke="#000000" stroke-width="8.0" stroke-linejoin="round" stroke-linecap="butt" d="m634.9764 705.2651l4.4645386 -17.858276l17.614197 0l-4.4645386 17.858276z" fill-rule="evenodd"/><path fill="#000000" d="m666.9764 705.2651l4.4645386 -17.858276l17.614197 0l-4.4645386 17.858276z" fill-rule="evenodd"/><path stroke="#000000" stroke-width="8.0" stroke-linejoin="round" stroke-linecap="butt" d="m666.9764 705.2651l4.4645386 -17.858276l17.614197 0l-4.4645386 17.858276z" fill-rule="evenodd"/><path fill="#000000" d="m698.9764 705.2651l4.4645386 -17.858276l17.614197 0l-4.4645386 17.858276z" fill-rule="evenodd"/><path stroke="#000000" stroke-width="8.0" stroke-linejoin="round" stroke-linecap="butt" d="m698.9764 705.2651l4.4645386 -17.858276l17.614197 0l-4.4645386 17.858276z" fill-rule="evenodd"/><path fill="#000000" d="m730.9764 705.2651l4.4645386 -17.858276l17.614197 0l-4.4645386 17.858276z" fill-rule="evenodd"/><path stroke="#000000" stroke-width="8.0" stroke-linejoin="round" stroke-linecap="butt" d="m730.9764 705.2651l4.4645386 -17.858276l17.614197 0l-4.4645386 17.858276z" fill-rule="evenodd"/><path fill="#000000" d="m762.9764 705.2651l4.4645386 -17.858276l17.614197 0l-4.4645386 17.858276z" fill-rule="evenodd"/><path stroke="#000000" stroke-width="8.0" stroke-linejoin="round" stroke-linecap="butt" d="m762.9764 705.2651l4.4645386 -17.858276l17.614197 0l-4.4645386 17.858276z" fill-rule="evenodd"/><path fill="#000000" d="m794.9764 705.2651l4.4645386 -17.858276l17.614197 0l-4.4645386 17.858276z" fill-rule="evenodd"/><path stroke="#000000" stroke-width="8.0" stroke-linejoin="round" stroke-linecap="butt" d="m794.9764 705.2651l4.4645386 -17.858276l17.614197 0l-4.4645386 17.858276z" fill-rule="evenodd"/><path fill="#000000" d="m826.9764 705.2651l4.4645386 -17.858276l17.614197 0l-4.4645386 17.858276z" fill-rule="evenodd"/><path stroke="#000000" stroke-width="8.0" stroke-linejoin="round" stroke-linecap="butt" d="m826.9764 705.2651l4.4645386 -17.858276l17.614197 0l-4.4645386 17.858276z" fill-rule="evenodd"/><path fill="#000000" d="m858.9764 705.2651l4.4645386 -17.858276l17.614197 0l-4.4645386 17.858276z" fill-rule="evenodd"/><path stroke="#000000" stroke-width="8.0" stroke-linejoin="round" stroke-linecap="butt" d="m858.9764 705.2651l4.4645386 -17.858276l17.614197 0l-4.4645386 17.858276z" fill-rule="evenodd"/><path fill="#000000" d="m890.9764 705.2651l4.4645386 -17.858276l17.614197 0l-4.4645386 17.858276z" fill-rule="evenodd"/><path stroke="#000000" stroke-width="8.0" stroke-linejoin="round" stroke-linecap="butt" d="m890.9764 705.2651l4.4645386 -17.858276l17.614197 0l-4.4645386 17.858276z" fill-rule="evenodd"/><path fill="#c27ba0" d="m689.0551 296.67322l0 -104.1181c0 -41.30829 -33.487 -74.79527 -74.79529 -74.79527l-53.42517 0l0 -21.370079l-42.740173 42.740166l42.740173 42.740143l0 -21.370071l53.42517 0l0 0c17.703552 0 32.055115 14.3515625 32.055115 32.055115l0 104.1181z" fill-rule="evenodd"/><path stroke="#c27ba0" stroke-width="1.0" stroke-linejoin="round" stroke-linecap="butt" d="m689.0551 296.67322l0 -104.1181c0 -41.30829 -33.487 -74.79527 -74.79529 -74.79527l-53.42517 0l0 -21.370079l-42.740173 42.740166l42.740173 42.740143l0 -21.370071l53.42517 0l0 0c17.703552 0 32.055115 14.3515625 32.055115 32.055115l0 104.1181z" fill-rule="evenodd"/></g></svg>