<svg version="1.1" viewBox="0.0 0.0 1134.0603674540682 713.8556430446195" fill="none" stroke="none" stroke-linecap="square" stroke-miterlimit="10" xmlns:xlink="http://www.w3.org/1999/xlink" xmlns="http://www.w3.org/2000/svg"><clipPath id="p.0"><path d="m0 0l1134.0604 0l0 713.85565l-1134.0604 0l0 -713.85565z" clip-rule="nonzero"/></clipPath><g clip-path="url(#p.0)"><path fill="#000000" fill-opacity="0.0" d="m0 0l1134.0604 0l0 713.85565l-1134.0604 0z" fill-rule="evenodd"/><path fill="#a2c4c9" d="m22.118109 126.59613l0 0c0 -25.075111 20.327394 -45.402504 45.402504 -45.402504l940.8013 0c12.041443 0 23.589722 4.7834625 32.10437 13.298088c8.514648 8.514618 13.298096 20.062927 13.298096 32.104416l0 479.72156c0 25.075073 -20.327393 45.402466 -45.402466 45.402466l-940.8013 0c-25.075111 0 -45.402504 -20.327393 -45.402504 -45.402466z" fill-rule="evenodd"/><path fill="#a2c4c9" d="m22.118109 62.181694l0 0c0 -8.775757 7.1141567 -15.889915 15.889914 -15.889915l381.91144 0c4.214264 0 8.25592 1.6741104 11.23584 4.654049c2.97995 2.9799347 4.6540527 7.021599 4.6540527 11.235867l0 63.557747c0 8.775757 -7.1141357 15.889908 -15.889893 15.889908l-381.91144 0c-8.775757 0 -15.889914 -7.114151 -15.889914 -15.889908z" fill-rule="evenodd"/><path fill="#000000" d="m63.511204 405.07623l0 0c0 -9.33493 7.5674477 -16.902374 16.902378 -16.902374l329.04813 0c4.482788 0 8.781952 1.7807617 11.951782 4.950592c3.1697998 3.1697998 4.950592 7.468994 4.950592 11.951782l0 178.58997c0 9.334961 -7.5674744 16.902405 -16.902374 16.902405l-329.04813 0c-9.33493 0 -16.902378 -7.567444 -16.902378 -16.902405z" fill-rule="evenodd"/><path fill="#000000" d="m63.511204 381.0961l0 0c0 -3.2670288 2.648449 -5.9154663 5.91547 -5.9154663l133.67908 0c1.5688782 0 3.0735016 0.62323 4.1828613 1.732605c1.109375 1.109375 1.732605 2.6139832 1.732605 4.1828613l0 23.661194c0 3.2670288 -2.6484375 5.9154663 -5.9154663 5.9154663l-133.67908 0c-3.2670212 0 -5.91547 -2.6484375 -5.91547 -5.9154663z" fill-rule="evenodd"/><path fill="#efefef" d="m73.09517 411.43283l0 0c0 -8.462494 6.8601913 -15.322693 15.32267 -15.322693l314.68945 0c4.0638123 0 7.961212 1.6143494 10.834778 4.487915c2.8735352 2.8735657 4.4878845 6.770935 4.4878845 10.834778l0 161.8989c0 8.462463 -6.8601685 15.322693 -15.322662 15.322693l-314.68945 0c-8.462479 0 -15.32267 -6.8602295 -15.32267 -15.322693z" fill-rule="evenodd"/><path fill="#efefef" d="m73.09556 389.69498l0 0c0 -2.9617004 2.4009247 -5.36261 5.36261 -5.36261l117.39747 0c1.4222565 0 2.786255 0.5649719 3.7919312 1.5706482c1.0056915 1.0057068 1.5706787 2.36969 1.5706787 3.7919617l0 21.449799c0 2.96167 -2.4009247 5.36261 -5.36261 5.36261l-117.39747 0c-2.9616852 0 -5.36261 -2.40094 -5.36261 -5.36261z" fill-rule="evenodd"/><path fill="#ffffff" d="m168.11548 419.74014l84.063 0l0 108.409454l-84.063 0z" fill-rule="evenodd"/><path stroke="#000000" stroke-width="3.0" stroke-linejoin="round" stroke-linecap="butt" d="m168.11548 419.74014l84.063 0l0 108.409454l-84.063 0z" fill-rule="evenodd"/><path fill="#ffffff" d="m190.25157 513.80316c-2.7468262 0 -4.9735565 -2.2267456 -4.9735565 -4.973572l0 -29.911163c0 -2.7467957 -2.2267303 -4.9735413 -4.9735565 -4.9735413c2.7468262 0 4.9735565 -2.2267456 4.9735565 -4.973572l0 -29.911133l0 0c0 -2.7468262 2.2267303 -4.973572 4.9735565 -4.973572l39.790817 0c1.3190765 0 2.5841217 0.52401733 3.5168304 1.4567261c0.932724 0.93270874 1.4567261 2.197754 1.4567261 3.5168457l0 29.911133c0 2.7468262 2.2267303 4.973572 4.9735565 4.973572c-2.7468262 0 -4.9735565 2.2267456 -4.9735565 4.9735413l0 29.911163c0 2.7468262 -2.2267303 4.973572 -4.9735565 4.973572z" fill-rule="evenodd"/><path fill="#000000" fill-opacity="0.0" d="m190.25157 513.80316c-2.7468262 0 -4.9735565 -2.2267456 -4.9735565 -4.973572l0 -29.911163c0 -2.7467957 -2.2267303 -4.9735413 -4.9735565 -4.9735413c2.7468262 0 4.9735565 -2.2267456 4.9735565 -4.973572l0 -29.911133l0 0c0 -2.7468262 2.2267303 -4.973572 4.9735565 -4.973572m39.790817 0c1.3190765 0 2.5841217 0.52401733 3.5168304 1.4567261c0.932724 0.93270874 1.4567261 2.197754 1.4567261 3.5168457l0 29.911133c0 2.7468262 2.2267303 4.973572 4.9735565 4.973572c-2.7468262 0 -4.9735565 2.2267456 -4.9735565 4.9735413l0 29.911163c0 2.7468262 -2.2267303 4.973572 -4.9735565 4.973572" fill-rule="evenodd"/><path stroke="#000000" stroke-width="8.0" stroke-linejoin="round" stroke-linecap="butt" d="m190.25157 513.80316c-2.7468262 0 -4.9735565 -2.2267456 -4.9735565 -4.973572l0 -29.911163c0 -2.7467957 -2.2267303 -4.9735413 -4.9735565 -4.9735413c2.7468262 0 4.9735565 -2.2267456 4.9735565 -4.973572l0 -29.911133l0 0c0 -2.7468262 2.2267303 -4.973572 4.9735565 -4.973572m39.790817 0c1.3190765 0 2.5841217 0.52401733 3.5168304 1.4567261c0.932724 0.93270874 1.4567261 2.197754 1.4567261 3.5168457l0 29.911133c0 2.7468262 2.2267303 4.973572 4.9735565 4.973572c-2.7468262 0 -4.9735565 2.2267456 -4.9735565 4.9735413l0 29.911163c0 2.7468262 -2.2267303 4.973572 -4.9735565 4.973572" fill-rule="evenodd"/><path fill="#ffffff" d="m202.90683 456.45145l84.06299 0l0 108.409454l-84.06299 0z" fill-rule="evenodd"/><path stroke="#000000" stroke-width="3.0" stroke-linejoin="round" stroke-linecap="butt" d="m202.90683 456.45145l84.06299 0l0 108.409454l-84.06299 0z" fill-rule="evenodd"/><path fill="#ffffff" d="m225.04291 550.51447c-2.746811 0 -4.9735565 -2.2267456 -4.9735565 -4.973572l0 -29.911194c0 -2.7467651 -2.2267303 -4.9735413 -4.9735565 -4.9735413c2.7468262 0 4.9735565 -2.226715 4.9735565 -4.9735413l0 -29.911163l0 0c0 -2.7468262 2.2267456 -4.9735413 4.9735565 -4.9735413l39.790833 0c1.3190613 0 2.5841064 0.5239868 3.5168152 1.4566956c0.93273926 0.93273926 1.4567261 2.1977844 1.4567261 3.5168457l0 29.911163c0 2.7468262 2.2267456 4.9735413 4.973572 4.9735413c-2.7468262 0 -4.973572 2.2267761 -4.973572 4.9735413l0 29.911194c0 2.7468262 -2.2267456 4.973572 -4.9735413 4.973572z" fill-rule="evenodd"/><path fill="#000000" fill-opacity="0.0" d="m225.04291 550.51447c-2.746811 0 -4.9735565 -2.2267456 -4.9735565 -4.973572l0 -29.911194c0 -2.7467651 -2.2267303 -4.9735413 -4.9735565 -4.9735413c2.7468262 0 4.9735565 -2.226715 4.9735565 -4.9735413l0 -29.911163l0 0c0 -2.7468262 2.2267456 -4.9735413 4.9735565 -4.9735413m39.790833 0c1.3190613 0 2.5841064 0.5239868 3.5168152 1.4566956c0.93273926 0.93273926 1.4567261 2.1977844 1.4567261 3.5168457l0 29.911163c0 2.7468262 2.2267456 4.9735413 4.973572 4.9735413c-2.7468262 0 -4.973572 2.2267761 -4.973572 4.9735413l0 29.911194c0 2.7468262 -2.2267456 4.973572 -4.9735413 4.973572" fill-rule="evenodd"/><path stroke="#000000" stroke-width="8.0" stroke-linejoin="round" stroke-linecap="butt" d="m225.04291 550.51447c-2.746811 0 -4.9735565 -2.2267456 -4.9735565 -4.973572l0 -29.911194c0 -2.7467651 -2.2267303 -4.9735413 -4.9735565 -4.9735413c2.7468262 0 4.9735565 -2.226715 4.9735565 -4.9735413l0 -29.911163l0 0c0 -2.7468262 2.2267456 -4.9735413 4.9735565 -4.9735413m39.790833 0c1.3190613 0 2.5841064 0.5239868 3.5168152 1.4566956c0.93273926 0.93273926 1.4567261 2.1977844 1.4567261 3.5168457l0 29.911163c0 2.7468262 2.2267456 4.9735413 4.973572 4.9735413c-2.7468262 0 -4.973572 2.2267761 -4.973572 4.9735413l0 29.911194c0 2.7468262 -2.2267456 4.973572 -4.9735413 4.973572" fill-rule="evenodd"/><path fill="#ffffff" d="m463.06937 147.44824l194.76553 0l0 288.67267l-194.76553 0z" fill-rule="evenodd"/><path stroke="#000000" stroke-width="3.0" stroke-linejoin="round" stroke-linecap="butt" d="m463.06937 147.44824l194.76553 0l0 288.67267l-194.76553 0z" fill-rule="evenodd"/><path fill="#ffffff" d="m514.35645 397.91916c-6.364105 0 -11.523224 -5.1591187 -11.523224 -11.523224l0 -83.088135c0 -6.364105 -5.1591187 -11.523224 -11.523224 -11.523224c6.364105 0 11.523224 -5.1591187 11.523224 -11.523224l0 -83.08815l0 0c0 -6.36409 5.1591187 -11.523224 11.523224 -11.523224l92.191345 0c3.0561523 0 5.9871216 1.2140503 8.148193 3.3750763c2.1610107 2.161026 3.375061 5.0920105 3.375061 8.148148l0 83.08815c0 6.364105 5.1591187 11.523224 11.523254 11.523224c-6.3641357 0 -11.523254 5.1591187 -11.523254 11.523224l0 83.088135c0 6.364105 -5.1591187 11.523224 -11.523254 11.523224z" fill-rule="evenodd"/><path fill="#000000" fill-opacity="0.0" d="m514.35645 397.91916c-6.364105 0 -11.523224 -5.1591187 -11.523224 -11.523224l0 -83.088135c0 -6.364105 -5.1591187 -11.523224 -11.523224 -11.523224c6.364105 0 11.523224 -5.1591187 11.523224 -11.523224l0 -83.08815l0 0c0 -6.36409 5.1591187 -11.523224 11.523224 -11.523224m92.191345 0c3.0561523 0 5.9871216 1.2140503 8.148193 3.3750763c2.1610107 2.161026 3.375061 5.0920105 3.375061 8.148148l0 83.08815c0 6.364105 5.1591187 11.523224 11.523254 11.523224c-6.3641357 0 -11.523254 5.1591187 -11.523254 11.523224l0 83.088135c0 6.364105 -5.1591187 11.523224 -11.523254 11.523224" fill-rule="evenodd"/><path stroke="#000000" stroke-width="8.0" stroke-linejoin="round" stroke-linecap="butt" d="m514.35645 397.91916c-6.364105 0 -11.523224 -5.1591187 -11.523224 -11.523224l0 -83.088135c0 -6.364105 -5.1591187 -11.523224 -11.523224 -11.523224c6.364105 0 11.523224 -5.1591187 11.523224 -11.523224l0 -83.08815l0 0c0 -6.36409 5.1591187 -11.523224 11.523224 -11.523224m92.191345 0c3.0561523 0 5.9871216 1.2140503 8.148193 3.3750763c2.1610107 2.161026 3.375061 5.0920105 3.375061 8.148148l0 83.08815c0 6.364105 5.1591187 11.523224 11.523254 11.523224c-6.3641357 0 -11.523254 5.1591187 -11.523254 11.523224l0 83.088135c0 6.364105 -5.1591187 11.523224 -11.523254 11.523224" fill-rule="evenodd"/><path fill="#cccccc" fill-opacity="0.4525" d="m789.67316 211.74805l237.23419 0l0 326.69446l-237.23419 0z" fill-rule="evenodd"/><path stroke="#000000" stroke-width="3.0" stroke-linejoin="round" stroke-linecap="butt" d="m789.67316 211.74805l237.23419 0l0 326.69446l-237.23419 0z" fill-rule="evenodd"/><path fill="#000000" d="m804.48566 282.18805l0 -6.40625l6.40625 0l0 6.40625l-6.40625 0zm15.15625 2.75l5.46875 0.8125q0.34375 2.53125 1.90625 3.6875q2.09375 1.5625 5.71875 1.5625q3.90625 0 6.03125 -1.5625q2.125 -1.5625 2.875 -4.375q0.4375 -1.71875 0.40625 -7.21875q-3.6875 4.34375 -9.1875 4.34375q-6.84375 0 -10.59375 -4.9375q-3.75 -4.9375 -3.75 -11.84375q0 -4.75 1.71875 -8.765625q1.71875 -4.015625 4.984375 -6.203125q3.265625 -2.1875 7.671875 -2.1875q5.875 0 9.6875 4.75l0 -4.0l5.1875 0l0 28.6875q0 7.75 -1.578125 10.984375q-1.578125 3.234375 -5.0 5.109375q-3.421875 1.875 -8.421875 1.875q-5.9375 0 -9.59375 -2.671875q-3.65625 -2.671875 -3.53125 -8.046875zm4.65625 -19.9375q0 6.53125 2.59375 9.53125q2.59375 3.0 6.5 3.0q3.875 0 6.5 -2.984375q2.625 -2.984375 2.625 -9.359375q0 -6.09375 -2.703125 -9.1875q-2.703125 -3.09375 -6.515625 -3.09375q-3.75 0 -6.375 3.046875q-2.625 3.046875 -2.625 9.046875zm32.0 -22.15625l0 -6.46875l5.625 0l0 6.46875l-5.625 0zm0 39.34375l0 -33.1875l5.625 0l0 33.1875l-5.625 0zm26.46875 -5.03125l0.8125 4.96875q-2.375 0.5 -4.25 0.5q-3.0625 0 -4.75 -0.96875q-1.6875 -0.96875 -2.375 -2.546875q-0.6875 -1.578125 -0.6875 -6.640625l0 -19.09375l-4.125 0l0 -4.375l4.125 0l0 -8.21875l5.59375 -3.375l0 11.59375l5.65625 0l0 4.375l-5.65625 0l0 19.40625q0 2.40625 0.296875 3.09375q0.296875 0.6875 0.96875 1.09375q0.671875 0.40625 1.921875 0.40625q0.9375 0 2.46875 -0.21875z" fill-rule="nonzero"/><path fill="#b4a7d6" d="m814.3307 444.38193c0 4.562622 42.065674 8.261353 93.95624 8.261353c51.890564 0 93.95618 -3.6987305 93.95618 -8.261353l0 49.568146c0 4.562622 -42.065613 8.261383 -93.95618 8.261383c-51.890564 0 -93.95624 -3.698761 -93.95624 -8.261383z" fill-rule="evenodd"/><path fill="#d2cae6" d="m814.3307 444.38193c0 -4.562622 42.065674 -8.261353 93.95624 -8.261353c51.890564 0 93.95618 3.6987305 93.95618 8.261353l0 0c0 4.562622 -42.065613 8.261353 -93.95618 8.261353c-51.890564 0 -93.95624 -3.6987305 -93.95624 -8.261353z" fill-rule="evenodd"/><path fill="#000000" fill-opacity="0.0" d="m1002.2431 444.38193l0 0c0 4.562622 -42.065613 8.261353 -93.95618 8.261353c-51.890564 0 -93.95624 -3.6987305 -93.95624 -8.261353c0 -4.562622 42.065674 -8.261353 93.95624 -8.261353c51.890564 0 93.95618 3.6987305 93.95618 8.261353l0 49.568146c0 4.562622 -42.065613 8.261383 -93.95618 8.261383c-51.890564 0 -93.95624 -3.698761 -93.95624 -8.261383l0 -49.568146" fill-rule="evenodd"/><path stroke="#351c75" stroke-width="3.0" stroke-linejoin="round" stroke-linecap="butt" d="m1002.2431 444.38193l0 0c0 4.562622 -42.065613 8.261353 -93.95618 8.261353c-51.890564 0 -93.95624 -3.6987305 -93.95624 -8.261353c0 -4.562622 42.065674 -8.261353 93.95624 -8.261353c51.890564 0 93.95618 3.6987305 93.95618 8.261353l0 49.568146c0 4.562622 -42.065613 8.261383 -93.95618 8.261383c-51.890564 0 -93.95624 -3.698761 -93.95624 -8.261383l0 -49.568146" fill-rule="evenodd"/><path fill="#b4a7d6" d="m814.3307 403.66333l0 0c0 4.3163147 42.065674 7.815338 93.95624 7.815338c51.890564 0 93.95618 -3.4990234 93.95618 -7.815338l0 46.89206c0 4.316284 -42.065613 7.815338 -93.95618 7.815338c-51.890564 0 -93.95624 -3.499054 -93.95624 -7.815338z" fill-rule="evenodd"/><path fill="#d2cae6" d="m814.3307 403.66333l0 0c0 -4.316284 42.065674 -7.815338 93.95624 -7.815338c51.890564 0 93.95618 3.499054 93.95618 7.815338l0 0c0 4.3163147 -42.065613 7.815338 -93.95618 7.815338c-51.890564 0 -93.95624 -3.4990234 -93.95624 -7.815338z" fill-rule="evenodd"/><path fill="#000000" fill-opacity="0.0" d="m1002.2431 403.66333l0 0c0 4.3163147 -42.065613 7.815338 -93.95618 7.815338c-51.890564 0 -93.95624 -3.4990234 -93.95624 -7.815338l0 0c0 -4.316284 42.065674 -7.815338 93.95624 -7.815338c51.890564 0 93.95618 3.499054 93.95618 7.815338l0 46.89206c0 4.316284 -42.065613 7.815338 -93.95618 7.815338c-51.890564 0 -93.95624 -3.499054 -93.95624 -7.815338l0 -46.89206" fill-rule="evenodd"/><path stroke="#351c75" stroke-width="3.0" stroke-linejoin="round" stroke-linecap="butt" d="m1002.2431 403.66333l0 0c0 4.3163147 -42.065613 7.815338 -93.95618 7.815338c-51.890564 0 -93.95624 -3.4990234 -93.95624 -7.815338l0 0c0 -4.316284 42.065674 -7.815338 93.95624 -7.815338c51.890564 0 93.95618 3.499054 93.95618 7.815338l0 46.89206c0 4.316284 -42.065613 7.815338 -93.95618 7.815338c-51.890564 0 -93.95624 -3.499054 -93.95624 -7.815338l0 -46.89206" fill-rule="evenodd"/><path fill="#b4a7d6" d="m814.33136 336.86536l0 0c0 5.9487 42.065674 10.771057 93.95624 10.771057c51.890564 0 93.95624 -4.822357 93.95624 -10.771057l0 64.62634c0 5.9486694 -42.065674 10.771057 -93.95624 10.771057c-51.890564 0 -93.95624 -4.8223877 -93.95624 -10.771057z" fill-rule="evenodd"/><path fill="#d2cae6" d="m814.33136 336.86536l0 0c0 -5.9486694 42.065674 -10.771057 93.95624 -10.771057c51.890564 0 93.95624 4.8223877 93.95624 10.771057l0 0c0 5.9487 -42.065674 10.771057 -93.95624 10.771057c-51.890564 0 -93.95624 -4.822357 -93.95624 -10.771057z" fill-rule="evenodd"/><path fill="#000000" fill-opacity="0.0" d="m1002.24384 336.86536l0 0c0 5.9487 -42.065674 10.771057 -93.95624 10.771057c-51.890564 0 -93.95624 -4.822357 -93.95624 -10.771057l0 0c0 -5.9486694 42.065674 -10.771057 93.95624 -10.771057c51.890564 0 93.95624 4.8223877 93.95624 10.771057l0 64.62634c0 5.9486694 -42.065674 10.771057 -93.95624 10.771057c-51.890564 0 -93.95624 -4.8223877 -93.95624 -10.771057l0 -64.62634" fill-rule="evenodd"/><path stroke="#351c75" stroke-width="3.0" stroke-linejoin="round" stroke-linecap="butt" d="m1002.24384 336.86536l0 0c0 5.9487 -42.065674 10.771057 -93.95624 10.771057c-51.890564 0 -93.95624 -4.822357 -93.95624 -10.771057l0 0c0 -5.9486694 42.065674 -10.771057 93.95624 -10.771057c51.890564 0 93.95624 4.8223877 93.95624 10.771057l0 64.62634c0 5.9486694 -42.065674 10.771057 -93.95624 10.771057c-51.890564 0 -93.95624 -4.8223877 -93.95624 -10.771057l0 -64.62634" fill-rule="evenodd"/><path fill="#b4a7d6" d="m814.3307 311.4714l0 0c0 4.316284 42.065674 7.815338 93.95624 7.815338c51.890564 0 93.95618 -3.499054 93.95618 -7.815338l0 46.89203c0 4.3163147 -42.065613 7.815338 -93.95618 7.815338c-51.890564 0 -93.95624 -3.4990234 -93.95624 -7.815338z" fill-rule="evenodd"/><path fill="#d2cae6" d="m814.3307 311.4714l0 0c0 -4.316284 42.065674 -7.815338 93.95624 -7.815338c51.890564 0 93.95618 3.499054 93.95618 7.815338l0 0c0 4.316284 -42.065613 7.815338 -93.95618 7.815338c-51.890564 0 -93.95624 -3.499054 -93.95624 -7.815338z" fill-rule="evenodd"/><path fill="#000000" fill-opacity="0.0" d="m1002.2431 311.4714l0 0c0 4.316284 -42.065613 7.815338 -93.95618 7.815338c-51.890564 0 -93.95624 -3.499054 -93.95624 -7.815338l0 0c0 -4.316284 42.065674 -7.815338 93.95624 -7.815338c51.890564 0 93.95618 3.499054 93.95618 7.815338l0 46.89203c0 4.3163147 -42.065613 7.815338 -93.95618 7.815338c-51.890564 0 -93.95624 -3.4990234 -93.95624 -7.815338l0 -46.89203" fill-rule="evenodd"/><path stroke="#351c75" stroke-width="3.0" stroke-linejoin="round" stroke-linecap="butt" d="m1002.2431 311.4714l0 0c0 4.316284 -42.065613 7.815338 -93.95618 7.815338c-51.890564 0 -93.95624 -3.499054 -93.95624 -7.815338l0 0c0 -4.316284 42.065674 -7.815338 93.95624 -7.815338c51.890564 0 93.95618 3.499054 93.95618 7.815338l0 46.89203c0 4.3163147 -42.065613 7.815338 -93.95618 7.815338c-51.890564 0 -93.95624 -3.4990234 -93.95624 -7.815338l0 -46.89203" fill-rule="evenodd"/><path fill="#000000" d="m53.928528 156.72977l0 0c0 -9.33493 7.5674515 -16.902374 16.902374 -16.902374l329.0481 0c4.482788 0 8.781982 1.780777 11.951782 4.950592c3.1698303 3.1697998 4.950592 7.468994 4.950592 11.951782l0 178.59c0 9.33493 -7.567444 16.902374 -16.902374 16.902374l-329.0481 0c-9.334923 0 -16.902374 -7.567444 -16.902374 -16.902374z" fill-rule="evenodd"/><path fill="#000000" d="m53.928528 132.74965l0 0c0 -3.2670135 2.6484451 -5.9154663 5.91547 -5.9154663l133.6791 0c1.5688782 0 3.0735016 0.6232376 4.1828613 1.732605c1.109375 1.1093597 1.732605 2.6139832 1.732605 4.1828613l0 23.661179c0 3.2670288 -2.6484528 5.9154816 -5.9154663 5.9154816l-133.6791 0c-3.267025 0 -5.91547 -2.6484528 -5.91547 -5.9154816z" fill-rule="evenodd"/><path fill="#efefef" d="m63.512493 163.08636l0 0c0 -8.462479 6.860195 -15.322678 15.322666 -15.322678l314.68945 0c4.0638123 0 7.961212 1.6143494 10.834747 4.487915c2.8735657 2.8735504 4.487915 6.770935 4.487915 10.834763l0 161.8989c0 8.462494 -6.860199 15.322693 -15.322662 15.322693l-314.68945 0c-8.462471 0 -15.322666 -6.860199 -15.322666 -15.322693z" fill-rule="evenodd"/><path fill="#efefef" d="m63.512886 141.34851l0 0c0 -2.9616852 2.400917 -5.36261 5.36261 -5.36261l117.39747 0c1.4222412 0 2.786255 0.5649872 3.7919312 1.5706635c1.0056915 1.0056915 1.5706787 2.36969 1.5706787 3.7919464l0 21.449799c0 2.9616852 -2.4009247 5.36261 -5.36261 5.36261l-117.39747 0c-2.9616928 0 -5.36261 -2.4009247 -5.36261 -5.36261z" fill-rule="evenodd"/><path fill="#ffffff" d="m158.5328 171.3937l84.06299 0l0 108.409454l-84.06299 0z" fill-rule="evenodd"/><path stroke="#000000" stroke-width="3.0" stroke-linejoin="round" stroke-linecap="butt" d="m158.5328 171.3937l84.06299 0l0 108.409454l-84.06299 0z" fill-rule="evenodd"/><path fill="#ffffff" d="m180.6689 265.4567c-2.7468262 0 -4.9735565 -2.2267456 -4.9735565 -4.973572l0 -29.911148c0 -2.746811 -2.2267456 -4.9735565 -4.9735565 -4.9735565c2.746811 0 4.9735565 -2.2267303 4.9735565 -4.9735413l0 -29.911163l0 0c0 -2.7468262 2.2267303 -4.9735565 4.9735565 -4.9735565l39.790817 0c1.3190613 0 2.5841064 0.5240021 3.5168304 1.4567261c0.932724 0.93270874 1.4567261 2.197754 1.4567261 3.5168304l0 29.911163c0 2.746811 2.2267303 4.9735413 4.9735565 4.9735413c-2.7468262 0 -4.9735565 2.2267456 -4.9735565 4.9735565l0 29.911148c0 2.7468262 -2.2267456 4.973572 -4.9735565 4.973572z" fill-rule="evenodd"/><path fill="#000000" fill-opacity="0.0" d="m180.6689 265.4567c-2.7468262 0 -4.9735565 -2.2267456 -4.9735565 -4.973572l0 -29.911148c0 -2.746811 -2.2267456 -4.9735565 -4.9735565 -4.9735565c2.746811 0 4.9735565 -2.2267303 4.9735565 -4.9735413l0 -29.911163l0 0c0 -2.7468262 2.2267303 -4.9735565 4.9735565 -4.9735565m39.790817 0c1.3190613 0 2.5841064 0.5240021 3.5168304 1.4567261c0.932724 0.93270874 1.4567261 2.197754 1.4567261 3.5168304l0 29.911163c0 2.746811 2.2267303 4.9735413 4.9735565 4.9735413c-2.7468262 0 -4.9735565 2.2267456 -4.9735565 4.9735565l0 29.911148c0 2.7468262 -2.2267456 4.973572 -4.9735565 4.973572" fill-rule="evenodd"/><path stroke="#000000" stroke-width="8.0" stroke-linejoin="round" stroke-linecap="butt" d="m180.6689 265.4567c-2.7468262 0 -4.9735565 -2.2267456 -4.9735565 -4.973572l0 -29.911148c0 -2.746811 -2.2267456 -4.9735565 -4.9735565 -4.9735565c2.746811 0 4.9735565 -2.2267303 4.9735565 -4.9735413l0 -29.911163l0 0c0 -2.7468262 2.2267303 -4.9735565 4.9735565 -4.9735565m39.790817 0c1.3190613 0 2.5841064 0.5240021 3.5168304 1.4567261c0.932724 0.93270874 1.4567261 2.197754 1.4567261 3.5168304l0 29.911163c0 2.746811 2.2267303 4.9735413 4.9735565 4.9735413c-2.7468262 0 -4.9735565 2.2267456 -4.9735565 4.9735565l0 29.911148c0 2.7468262 -2.2267456 4.973572 -4.9735565 4.973572" fill-rule="evenodd"/><path fill="#ffffff" d="m193.32414 208.10498l84.063 0l0 108.409454l-84.063 0z" fill-rule="evenodd"/><path stroke="#000000" stroke-width="3.0" stroke-linejoin="round" stroke-linecap="butt" d="m193.32414 208.10498l84.063 0l0 108.409454l-84.063 0z" fill-rule="evenodd"/><path fill="#ffffff" d="m215.46024 302.16797c-2.7468262 0 -4.9735565 -2.226715 -4.9735565 -4.9735413l0 -29.911163c0 -2.7468262 -2.2267303 -4.9735413 -4.9735565 -4.9735413c2.7468262 0 4.9735565 -2.2267456 4.9735565 -4.973572l0 -29.911148l0 0c0 -2.7468262 2.2267303 -4.9735565 4.9735565 -4.9735565l39.790817 0c1.3190765 0 2.5841217 0.5240021 3.5168304 1.4567108c0.93273926 0.932724 1.4567261 2.1977692 1.4567261 3.5168457l0 29.911148c0 2.7468262 2.2267456 4.973572 4.9735413 4.973572c-2.7467957 0 -4.9735413 2.226715 -4.9735413 4.9735413l0 29.911163c0 2.7468262 -2.2267456 4.9735413 -4.9735565 4.9735413z" fill-rule="evenodd"/><path fill="#000000" fill-opacity="0.0" d="m215.46024 302.16797c-2.7468262 0 -4.9735565 -2.226715 -4.9735565 -4.9735413l0 -29.911163c0 -2.7468262 -2.2267303 -4.9735413 -4.9735565 -4.9735413c2.7468262 0 4.9735565 -2.2267456 4.9735565 -4.973572l0 -29.911148l0 0c0 -2.7468262 2.2267303 -4.9735565 4.9735565 -4.9735565m39.790817 0c1.3190765 0 2.5841217 0.5240021 3.5168304 1.4567108c0.93273926 0.932724 1.4567261 2.1977692 1.4567261 3.5168457l0 29.911148c0 2.7468262 2.2267456 4.973572 4.9735413 4.973572c-2.7467957 0 -4.9735413 2.226715 -4.9735413 4.9735413l0 29.911163c0 2.7468262 -2.2267456 4.9735413 -4.9735565 4.9735413" fill-rule="evenodd"/><path stroke="#000000" stroke-width="8.0" stroke-linejoin="round" stroke-linecap="butt" d="m215.46024 302.16797c-2.7468262 0 -4.9735565 -2.226715 -4.9735565 -4.9735413l0 -29.911163c0 -2.7468262 -2.2267303 -4.9735413 -4.9735565 -4.9735413c2.7468262 0 4.9735565 -2.2267456 4.9735565 -4.973572l0 -29.911148l0 0c0 -2.7468262 2.2267303 -4.9735565 4.9735565 -4.9735565m39.790817 0c1.3190765 0 2.5841217 0.5240021 3.5168304 1.4567108c0.93273926 0.932724 1.4567261 2.1977692 1.4567261 3.5168457l0 29.911148c0 2.7468262 2.2267456 4.973572 4.9735413 4.973572c-2.7467957 0 -4.9735413 2.226715 -4.9735413 4.9735413l0 29.911163c0 2.7468262 -2.2267456 4.9735413 -4.9735565 4.9735413" fill-rule="evenodd"/><path fill="#ffffff" d="m545.78864 255.81412l208.29126 0l0 299.66537l-208.29126 0z" fill-rule="evenodd"/><path stroke="#000000" stroke-width="3.0" stroke-linejoin="round" stroke-linecap="butt" d="m545.78864 255.81412l208.29126 0l0 299.66537l-208.29126 0z" fill-rule="evenodd"/><path fill="#ffffff" d="m600.6374 515.82306c-6.8060303 0 -12.323486 -5.5174255 -12.323486 -12.323486l0 -85.52927c0 -6.8060913 -5.517395 -12.323486 -12.323425 -12.323486c6.8060303 0 12.323425 -5.517395 12.323425 -12.323486l0 -85.52927l0 0c0 -6.806061 5.517456 -12.323456 12.323486 -12.323456l98.59369 0c3.2684326 0 6.402954 1.2983398 8.71405 3.609436c2.3110962 2.3110962 3.609436 5.445648 3.609436 8.71402l0 85.52927c0 6.8060913 5.517395 12.323486 12.323486 12.323486c-6.8060913 0 -12.323486 5.517395 -12.323486 12.323486l0 85.52927c0 6.806061 -5.517395 12.323486 -12.323486 12.323486z" fill-rule="evenodd"/><path fill="#000000" fill-opacity="0.0" d="m600.6374 515.82306c-6.8060303 0 -12.323486 -5.5174255 -12.323486 -12.323486l0 -85.52927c0 -6.8060913 -5.517395 -12.323486 -12.323425 -12.323486c6.8060303 0 12.323425 -5.517395 12.323425 -12.323486l0 -85.52927l0 0c0 -6.806061 5.517456 -12.323456 12.323486 -12.323456m98.59369 0c3.2684326 0 6.402954 1.2983398 8.71405 3.609436c2.3110962 2.3110962 3.609436 5.445648 3.609436 8.71402l0 85.52927c0 6.8060913 5.517395 12.323486 12.323486 12.323486c-6.8060913 0 -12.323486 5.517395 -12.323486 12.323486l0 85.52927c0 6.806061 -5.517395 12.323486 -12.323486 12.323486" fill-rule="evenodd"/><path stroke="#000000" stroke-width="8.0" stroke-linejoin="round" stroke-linecap="butt" d="m600.6374 515.82306c-6.8060303 0 -12.323486 -5.5174255 -12.323486 -12.323486l0 -85.52927c0 -6.8060913 -5.517395 -12.323486 -12.323425 -12.323486c6.8060303 0 12.323425 -5.517395 12.323425 -12.323486l0 -85.52927l0 0c0 -6.806061 5.517456 -12.323456 12.323486 -12.323456m98.59369 0c3.2684326 0 6.402954 1.2983398 8.71405 3.609436c2.3110962 2.3110962 3.609436 5.445648 3.609436 8.71402l0 85.52927c0 6.8060913 5.517395 12.323486 12.323486 12.323486c-6.8060913 0 -12.323486 5.517395 -12.323486 12.323486l0 85.52927c0 6.806061 -5.517395 12.323486 -12.323486 12.323486" fill-rule="evenodd"/></g></svg>